<?xml version="1.0" encoding="UTF-8"?>
<svg id="Layer_1" data-name="Layer 1" xmlns="http://www.w3.org/2000/svg" version="1.1" xmlns:xlink="http://www.w3.org/1999/xlink" viewBox="0 0 489 152">
  <defs>
    <style>
      .cls-1 {
        fill: url(#linear-gradient);
      }

      .cls-1, .cls-2, .cls-3, .cls-4 {
        stroke-width: 0px;
      }

      .cls-2 {
        fill: #0160af;
      }

      .cls-3 {
        fill: #cd1c28;
      }

      .cls-4 {
        fill: #fff;
      }
    </style>
    <linearGradient id="linear-gradient" x1="243.3" y1="97.7" x2="243.3" y2="19.3" gradientUnits="userSpaceOnUse">
      <stop offset="0" stop-color="#fff" stop-opacity="0"/>
      <stop offset=".2" stop-color="rgba(255, 255, 255, .2)" stop-opacity=".2"/>
      <stop offset=".8" stop-color="rgba(255, 255, 255, .8)" stop-opacity=".8"/>
      <stop offset="1" stop-color="#fff"/>
    </linearGradient>
  </defs>
  <ellipse class="cls-4" cx="243.3" cy="77" rx="241.3" ry="62.5"/>
  <path class="cls-3" d="M139.7,116.2h-36.9c-1.7,0-2.6-1.9-1.6-3.2l60.5-79.3c.8-1.1,2.4-1.1,3.2,0l60.5,79.3c1,1.3,0,3.2-1.6,3.2h-37.9l-22.1-28.9-24.2,28.9Z"/>
  <path class="cls-3" d="M163.4,98.9l-12.8,16c-.5.6,0,1.4.7,1.4h25.6c.7,0,1.1-.8.7-1.4l-12.8-16c-.3-.4-1-.4-1.3,0Z"/>
  <path class="cls-2" d="M311.7,57.3l10.6-9.7s-13.7-14.5-45.5-13.5c0,0-42.7-1.3-52,36.3,0,0-4.7,25.5,19.5,37.7,0,0,40,22.6,76.2-5.3l-10.7-9.7s-15.5,14.4-43.2,8.4c0,0-24.5-7.6-23-28.7,0,0,.5-20,28.7-25.2,0,0,21-3,39.5,9.7Z"/>
  <rect class="cls-2" x="343.9" y="35.9" width="18" height="80.4"/>
  <ellipse class="cls-1" cx="243.3" cy="58.5" rx="151.3" ry="39.2"/>
</svg>