<?xml version="1.0" encoding="utf-8"?>
<!-- Generator: Adobe Illustrator 16.0.0, SVG Export Plug-In . SVG Version: 6.00 Build 0)  -->
<!DOCTYPE svg PUBLIC "-//W3C//DTD SVG 1.1//EN" "http://www.w3.org/Graphics/SVG/1.1/DTD/svg11.dtd">
<svg version="1.1" id="Layer_1" xmlns="http://www.w3.org/2000/svg" xmlns:xlink="http://www.w3.org/1999/xlink" x="0px" y="0px"
	 width="20px" height="20px" viewBox="-2.5 -2.5 20 20" enable-background="new -2.5 -2.5 20 20" xml:space="preserve">
<path fill="#FFFFFF" d="M2.807,6.334l7.057-7.056c0.623-0.625,1.714-0.623,2.332-0.001c0.313,0.311,0.484,0.725,0.484,1.166
	s-0.172,0.855-0.483,1.167L6.305,7.5l5.892,5.89c0.312,0.312,0.483,0.726,0.483,1.165c0,0.44-0.172,0.854-0.483,1.166
	s-0.726,0.483-1.167,0.483s-0.855-0.172-1.166-0.483L2.805,8.665C2.498,8.354,2.327,7.942,2.322,7.5
	C2.322,7.062,2.494,6.647,2.807,6.334z"/>
</svg>
