<?xml version="1.0" encoding="UTF-8"?>
<svg id="Capa_1" data-name="Capa 1" xmlns="http://www.w3.org/2000/svg" version="1.1" viewBox="0 0 4000 4000">
  <defs>
    <style>
      .cls-1 {
        fill: #fff;
        stroke-width: 0px;
      }
    </style>
  </defs>
  <path class="cls-1" d="M2353.8,2000L3926.7,427.1c97.7-97.6,97.7-256.1,0-353.7-97.7-97.7-256-97.7-353.7,0l-1573,1572.9L427,73.4c-97.7-97.7-256-97.7-353.7,0-97.7,97.6-97.7,256.1,0,353.7l1573,1572.9L73.3,3573c-97.7,97.6-97.7,256.1,0,353.7,48.9,48.8,112.9,73.2,176.9,73.2s128-24.4,176.9-73.3l1573-1572.9,1573,1572.9c48.9,48.9,112.9,73.3,176.9,73.3s128-24.4,176.9-73.3c97.7-97.6,97.7-256.1,0-353.7l-1573.1-1572.9Z"/>
</svg>