<?xml version="1.0" encoding="utf-8"?>
<!-- Generator: Adobe Illustrator 25.2.0, SVG Export Plug-In . SVG Version: 6.00 Build 0)  -->
<svg version="1.1" id="Capa_1" xmlns="http://www.w3.org/2000/svg" xmlns:xlink="http://www.w3.org/1999/xlink" x="0px" y="0px"
	 viewBox="0 0 4000 4000" style="enable-background:new 0 0 4000 4000;" xml:space="preserve">
<style type="text/css">
	.st0{fill:#002866;}
</style>
<g>
	<g>
		<path class="st0" d="M3630.2,845.5c-0.1-1.3-0.2-2.6-0.4-3.9c-5-7.1-11.1-13.3-16.3-20.3c-37.3-50.9-76.9-99.8-118.6-146.9
			c-11.4-12.9-22.9-25.6-34.6-38.2c-43-46-88-89.9-135.2-131.6c-8.7-7.7-16.9-15.7-25.6-23.3c-116.2-99.6-243.5-185.5-379.3-256.1
			c-5.4-2.9-11.1-5.3-16.7-8.1c-60.5-30.7-122.5-58.4-185.8-82.7c-14.3-5.1-27.3-10-40.9-14.3c-56.3-20.3-113.5-38.1-171.5-53.3
			c-17.1-4.6-34.3-9.3-51.7-13.3c-57.2-13.3-114.3-23.4-172.8-31.7c-17.7-2.6-35.1-6-53-8.1c-150.5-18.3-302.7-18.3-453.3,0
			c-17.9,2.1-35.3,5.6-53,8.1c-58.4,8.3-116.2,18.4-172.8,31.7c-17.4,4-34.6,8.7-51.7,13.3c-58.4,15.2-115.6,33-171.5,53.3
			c-14.3,4.9-27.3,9.7-40.9,14.3c-63.3,24.4-125.3,52-185.8,82.7c-5.6,2.9-11.3,5.3-16.7,8.1c-136.2,70.5-263.9,156.4-380.5,256.1
			c-8.7,7.6-16.9,15.6-25.6,23.3c-47.6,41.9-92.7,85.8-135.2,131.6c-11.7,12.6-23.2,25.3-34.6,38.2c-41.8,47-81.4,95.9-118.6,146.9
			c-5.1,7-11.3,13.1-16.3,20.3c-0.7,1.2-1.2,2.5-1.7,3.9c-492.9,690.7-492.9,1618.2,0,2308.9c0.5,1.3,1.1,2.6,1.7,3.9
			c5,7.1,11.1,13.3,16.3,20.3c37.3,50.9,76.8,99.8,118.6,146.9c11.4,12.9,22.9,25.6,34.6,38.2c43.1,46,88.1,89.9,135.2,131.6
			c8.7,7.7,16.9,15.7,25.6,23.3C818,3618.1,945.2,3704,1081,3774.6c5.4,2.9,11.1,5.3,16.7,8.1c60.5,30.7,122.5,58.4,185.8,82.7
			c14.3,5.1,27.3,10,40.9,14.3c56.3,20.3,113.5,38.1,171.5,53.3c17.1,4.6,34.3,9.3,51.7,13.3c57.2,13.3,114.3,23.4,172.8,31.7
			c17.7,2.6,35.1,6,53,8.1c150.5,18.3,302.7,18.3,453.3,0c17.9-2.1,35.3-5.6,53-8.1c58.4-8.3,116.2-18.4,172.8-31.7
			c17.4-4,34.6-8.7,51.7-13.3c58.5-15.2,115.7-33,171.5-53.3c14.3-4.9,27.3-9.7,40.9-14.3c63.3-24.4,125.3-52,185.8-82.7
			c5.6-2.9,11.3-5.3,16.7-8.1c135.8-70.6,263-156.5,379.3-256.1c8.7-7.6,16.9-15.6,25.6-23.3c47.6-41.8,92.7-85.7,135.2-131.6
			c11.7-12.6,23.2-25.3,34.6-38.2c41.8-47.1,81.4-96,118.6-146.9c5.1-7,11.3-13.1,16.3-20.3c0.7-1.2,1.2-2.5,1.7-3.9
			C4123.1,2463.7,4123.1,1536.3,3630.2,845.5z M3467.1,1115.9c136.7,225.1,219.2,478.8,241.1,741.2h-856
			c-10.5-170.3-37.3-339.1-80-504.3C3014,1307.5,3248,1227.7,3467.1,1115.9z M2364.2,324.7c8,1.9,15.7,4.4,23.7,6.3
			c51.2,12,101.9,25.7,151.5,42.9c7.6,2.6,15,5.6,22.4,8.3c49.2,17.1,97.6,36.2,145,57.2c8.3,3.9,16.4,8.1,24.7,12
			c45.4,21.6,89.8,45,133.2,70.2l28.6,17.3c41.2,25.2,81.2,52.1,120,80.7c10,7.3,20,14.3,29.9,22.3c38.1,28.6,74.6,59.2,109.5,91.9
			c9.1,8.3,18.6,16.4,27.6,25c36.6,34.7,71.4,71.4,105.2,109.5c4.3,5,8.9,9.6,13.1,14.3c-193.5,92.2-398.5,158.1-609.5,195.8
			c-97.7-268.7-226.9-524.9-384.7-763.4C2324.4,318.4,2344.7,320.4,2364.2,324.7z M1434.3,1857.1c11.3-154.6,37.6-307.8,78.6-457.3
			c161.9,19.2,324.8,28.8,487.9,28.6c163.2-0.1,326.3-9.8,488.3-29.3c40.9,149.8,67.1,303.1,78.2,458H1434.3z M2567.2,2142.9
			c-11.3,154.6-37.6,307.8-78.6,457.3c-161.9-19.2-324.8-28.8-487.9-28.6c-163.2-0.2-326.2,9.4-488.3,28.6
			c-40.9-149.5-67.1-302.7-78.2-457.3H2567.2z M2000.7,378.4c162.6,230.5,296.4,480,398.3,743.1c-132.3,14-265.2,21.1-398.3,21.1
			c-132.9-0.2-265.7-7.3-397.8-21.3C1704.9,858.5,1838.5,609,2000.7,378.4z M716.1,868c33.6-38,68.6-74.7,105.2-109.5
			c9-8.6,18.4-16.7,27.6-25c35.3-32.1,71.7-62.7,109.5-91.9c9.9-7.6,19.9-14.3,29.9-22.3c38.9-28.6,78.9-55.5,120-80.7l28.6-17.3
			c43.3-25.3,87.7-48.7,133.2-70.2c8.3-3.9,16.4-8.1,24.7-12c47.4-21.4,95.9-40.4,145-57.2c7.4-2.7,14.3-5.7,22.4-8.3
			c49.6-16.6,100-30.3,151.5-42.9c8-1.9,15.7-4.4,23.9-6.1c19.6-4.3,39.9-6.3,59.7-9.9c-157.9,238.5-287,494.7-384.8,763.5
			c-211-37.7-416-103.6-609.5-195.8C707.2,877.5,711.8,873,716.1,868z M534.3,1115.9c219,111.8,453,191.6,694.8,236.9
			c-42.7,165.2-69.4,334-79.9,504.3h-856C315.1,1594.7,397.6,1341,534.3,1115.9z M534.3,2884.1
			c-136.7-225.1-219.2-478.8-241.1-741.2h856c10.5,170.3,37.3,339.1,80,504.3C987.4,2692.5,753.4,2772.3,534.3,2884.1z
			 M1637.2,3675.3c-8-1.9-15.7-4.4-23.7-6.3c-51.2-12-101.9-25.7-151.5-42.9c-7.6-2.6-15-5.6-22.4-8.3
			c-49.2-17.1-97.6-36.2-145-57.2c-8.3-3.9-16.4-8.1-24.7-12c-45.4-21.6-89.8-45-133.2-70.2l-28.6-17.3
			c-41.2-25.2-81.2-52.1-120-80.7c-10-7.3-20-14.3-29.9-22.3c-38.1-28.6-74.6-59.2-109.5-91.9c-9.1-8.3-18.6-16.4-27.6-25
			c-36.6-34.7-71.4-71.4-105.2-109.5c-4.3-5-8.9-9.6-13.1-14.3c193.5-92.2,398.5-158.1,609.5-195.8
			c97.7,268.7,226.9,524.9,384.7,763.4C1677,3681.6,1656.8,3679.6,1637.2,3675.3z M2000.7,3621.6
			c-162.6-230.5-296.4-480-398.3-743.1c264.6-28.5,531.6-28.5,796.2,0l-0.1,0.1C2296.5,3141.5,2162.9,3391,2000.7,3621.6z
			 M3285.4,3132c-33.6,38-68.6,74.7-105.2,109.5c-9,8.6-18.4,16.7-27.6,25c-35.3,32.2-71.7,62.8-109.5,91.9
			c-9.9,7.6-19.9,15-29.9,22.3c-38.9,28.6-78.9,55.5-120,80.7l-28.6,17.3c-43.3,25.2-87.6,48.6-133.2,70.2
			c-8.3,3.9-16.4,8.1-24.7,12c-47.4,21.4-95.9,40.4-145,57.2c-7.4,2.7-14.3,5.7-22.4,8.3c-49.6,16.6-100,30.3-151.5,42.9
			c-8,1.9-15.7,4.4-23.9,6.1c-19.6,4.3-39.9,6.3-59.7,9.9c157.8-238.4,286.9-494.7,384.7-763.4c211,37.7,416,103.6,609.5,195.8
			C3294.2,3122.5,3289.7,3127,3285.4,3132z M3467.1,2884.1c-219-111.8-453-191.6-694.8-236.9c42.7-165.2,69.4-334,79.9-504.3h856
			C3686.3,2405.3,3603.8,2659,3467.1,2884.1z"/>
	</g>
</g>
</svg>
