<?xml version="1.0" encoding="UTF-8"?>
<svg id="Layer_1" data-name="Layer 1" xmlns="http://www.w3.org/2000/svg" version="1.1" viewBox="0 0 76 76">
  <defs>
    <style>
      .cls-1 {
        fill: #bf7941;
        stroke-width: 0px;
      }
    </style>
  </defs>
  <path class="cls-1" d="M45.5,74.1c-7.6,0-18.4-2.4-29.2-13.2C4.9,49.4,2.9,37.9,3.2,30.3c.2-4.1,2.2-8.1,5.9-11.9,2.9-2.9,7-4.3,10.9-3.8,3.6.5,6.6,2.5,8.3,5.6l2.2,4c2.5,4.5,1.6,10.4-2.4,14.4-.7.8-.9,3.3,3.1,7.3,3.9,3.9,6.5,3.8,7.3,3.1,3.9-3.9,9.8-4.8,14.3-2.3l4,2.2c3.1,1.7,5.1,4.7,5.6,8.3.5,3.9-.9,8-3.8,10.9-3.8,3.8-7.8,5.8-11.9,5.9-.4,0-.9,0-1.3,0ZM18.3,19.4c-2.1,0-4.2.9-5.8,2.5-2,2-4.4,5.1-4.5,8.6-.3,6.6,1.6,16.7,11.8,26.9s20.2,12.1,26.9,11.8c3.5-.1,6.6-2.5,8.6-4.5,1.8-1.8,2.8-4.4,2.4-6.8-.3-2.1-1.4-3.7-3.2-4.7l-4-2.2c-2.6-1.5-6.1-.8-8.5,1.5h0c-.8.8-2.1,1.4-3.5,1.7-2.3.4-6.1-.1-10.7-4.8-8.6-8.6-3.3-14-3.1-14.2,2.4-2.4,3-5.9,1.5-8.5l-2.2-4c-1-1.8-2.7-2.9-4.7-3.2-.3,0-.7,0-1,0Z"/>
  <path class="cls-1" d="M70.4,32c-1.2,0-2.2-.9-2.4-2.1-1.3-9.2-7.6-15.2-7.6-15.2-6-6-13.6-7.9-13.7-7.9-1.3-.3-2.1-1.6-1.8-3,.3-1.3,1.6-2.1,2.9-1.8.4,0,9,2.3,15.9,9.1.3.2,7.5,7.1,9.1,18.1.2,1.3-.7,2.6-2.1,2.8-.1,0-.2,0-.3,0Z"/>
  <path class="cls-1" d="M57,31.7c-.9,0-1.8-.6-2-1.6-2.4-9.2-10.8-11-11.2-11.1-1.1-.2-1.9-1.3-1.7-2.5.2-1.1,1.3-1.9,2.4-1.7.5,0,11.4,2.2,14.5,14.1.3,1.1-.4,2.3-1.5,2.6-.2,0-.4,0-.5,0Z"/>
</svg>