<?xml version="1.0" encoding="UTF-8"?>
<svg id="Layer_1" data-name="Layer 1" xmlns="http://www.w3.org/2000/svg" version="1.1" viewBox="0 0 76 76">
  <defs>
    <style>
      .cls-1 {
        fill: #fff;
        stroke-width: 0px;
      }
    </style>
  </defs>
  <path class="cls-1" d="M18.3,41.1h41.6c-.5-.4-.8-.6-1.1-.9-3.8-2.7-7.7-5.3-11.5-8-.3-.2-.8-.4-1-.8-.3-.5-.6-1.3-.4-1.7.2-.4,1-.8,1.6-.8.5,0,1,.4,1.5.7,5.1,3.5,10.1,7.1,15.2,10.6.8.5,1.8.7,2.8.9,1.1.1,2.3,0,3.5,0,2.3,0,2.6.3,2.6,2.7,0,1.6,0,3.2,0,4.7,0,7.5,0,14.9,0,22.4,0,2.2-.4,2.5-2.5,2.5-21.1,0-42.2,0-63.3,0-2.1,0-2.5-.4-2.5-2.6,0-9.1,0-18.2,0-27.3,0-2.1.4-2.7,2.5-2.5,3.9.5,6.9-.8,9.9-3.2,3.7-3,7.8-5.6,11.7-8.3.4-.3.8-.7,1.2-.7.6,0,1.5.2,1.8.6.3.4,0,1.3-.3,1.8-.2.4-.8.6-1.2.9-4,2.8-8,5.7-12,8.5,0,0,0,.2.1.3ZM54.3,57.5h0c0-1.5,0-3,0-4.4,0-1-.5-1.8-1.5-1.8-1,0-1.5.7-1.5,1.8,0,3,0,5.9,0,8.9,0,1,.4,1.8,1.5,1.8,1.1,0,1.5-.7,1.5-1.8,0-1.5,0-3,0-4.4ZM63.6,57.4c0-1.5,0-3,0-4.4,0-1-.5-1.6-1.5-1.7-1,0-1.6.6-1.6,1.6,0,3,0,6,0,9,0,1,.6,1.6,1.6,1.6,1,0,1.5-.7,1.5-1.7,0-1.5,0-3,0-4.4ZM32.7,57.4c0,1.5,0,3,0,4.4,0,.9.4,1.7,1.5,1.7,1.1,0,1.6-.7,1.6-1.7,0-2.9,0-5.8,0-8.7,0-1-.5-1.7-1.5-1.7-1.1,0-1.5.8-1.5,1.8,0,1.4,0,2.9,0,4.3ZM23.5,57.1c0,1.5,0,3.1,0,4.6,0,1,.4,1.7,1.4,1.7,1,0,1.5-.7,1.5-1.6,0-3,0-5.9,0-8.9,0-.9-.4-1.7-1.4-1.7-1.1,0-1.5.8-1.5,1.8,0,1.4,0,2.8,0,4.2ZM45.1,57.4c0-1.4,0-2.9,0-4.3,0-1-.4-1.8-1.5-1.8-1.1,0-1.5.8-1.5,1.8,0,2.9,0,5.7,0,8.6,0,1,.4,1.8,1.5,1.8,1.1,0,1.5-.8,1.5-1.8,0-1.4,0-2.9,0-4.3ZM14.2,57.3c0,1.5,0,3,0,4.4,0,1,.4,1.7,1.5,1.7,1,0,1.4-.7,1.4-1.7,0-2.9,0-5.8,0-8.8,0-1-.5-1.7-1.5-1.7-1,0-1.4.7-1.4,1.7,0,1.4,0,2.9,0,4.3Z"/>
  <path class="cls-1" d="M40.4,17.2c0,.9,0,1.6,0,2.3,0,2-.2,2.2-2.1,2.6-1.7.4-2.8,1.7-2.8,3.3,0,1.6,1.2,3,2.7,3.3,1.6.3,3.3-.5,3.9-2,.2-.4.2-.8.3-1.2.1-1,.6-1.7,1.7-1.5,1.1.2,1.4,1,1.3,2-.3,3.1-2.7,5.6-5.7,5.9-3.2.3-6.1-1.6-6.9-4.6-.9-3.1.6-6.2,3.4-7.6q1.3-.6,1.1-2.3c-1,0-2,.1-3,0-.8-.1-1.7-.4-2.2-.9-2.3-2.2-4.5-4.4-6.7-6.7-.5-.6-.8-1.5-.9-2.3-.2-1.1,0-2.3,0-3.5,0-1.1.6-1.7,1.8-1.7,8.5,0,17,0,25.5,0,1.2,0,1.8.7,1.8,1.8,0,1.3,0,2.5,0,3.8,0,.5-.3,1.2-.7,1.6-2.3,2.4-4.6,4.7-7,7-.5.5-1.4.7-2.1.8-1,.1-2,0-3.2,0Z"/>
</svg>