<?xml version="1.0" encoding="UTF-8"?>
<svg id="Layer_1" data-name="Layer 1" xmlns="http://www.w3.org/2000/svg" version="1.1" viewBox="0 0 76 76">
  <defs>
    <style>
      .cls-1 {
        fill: #fff;
        stroke-width: 0px;
      }
    </style>
  </defs>
  <path class="cls-1" d="M70.1,54.8c0,4.9,0,9.5,0,14,0,1.2-.9,1.9-2.1,2.1-.4,0-.8,0-1.1,0-19.6,0-39.1,0-58.7,0-2.6,0-3.2-.7-3.2-3.2,0-3.8,0-7.5,0-11.3,0-.4,0-.8,0-1.6,1.1.8,2,1.3,2.8,1.9,4.1,3.5,9.1,3.5,13.1,0,1.3-1.1,2.7-1.8,4.3-2,.6,0,.9.1,1.2.8,1.7,5.2,5.9,8.5,11.1,8.5,5.1,0,9.5-3.3,11.2-8.4.2-.7.6-1.1,1.2-.8,1.4.5,3,.9,4.1,1.8,4.5,3.7,9.1,3.7,13.6,0,.7-.6,1.6-1.1,2.6-1.7ZM10.2,61.6c-.6,0-1.2-.1-1.8,0-.5.2-1.1.7-1.1,1.1,0,.4.6,1.1,1,1.1,1.2.2,2.4.2,3.5,0,.4,0,1-.7,1-1.1,0-.4-.6-.9-1.1-1.1-.5-.2-1.1,0-1.6,0ZM23,61.6h0c-.6,0-1.3-.2-1.9,0-.4.1-.9.7-.9,1.1,0,.4.6,1,.9,1.1,1.3.1,2.5.1,3.8,0,.3,0,.9-.7.9-1,0-.4-.5-1-.9-1.1-.6-.2-1.3,0-1.9,0ZM52,63.9s0,0,0,0c.7,0,1.4.1,2,0,.4-.1.9-.7.9-1.1,0-.3-.5-1-.9-1-1.3-.1-2.5-.1-3.8,0-.4,0-.9.7-.9,1.1,0,.4.5.9.9,1.1.5.2,1.2,0,1.8,0ZM64.8,63.9s0,0,0,0c.6,0,1.3.1,1.9,0,.4-.1,1-.7,1-1.1,0-.4-.6-1-.9-1.1-1.3-.1-2.5-.1-3.8,0-.3,0-.9.7-.9,1,0,.4.5,1,.9,1.1.6.2,1.3,0,1.9,0ZM28.8,66.3s0,0,0,0c-.6,0-1.3-.1-1.9,0-.4.1-1,.7-1,1.1,0,.4.6,1.1.9,1.1,1.3.1,2.5.1,3.8,0,.4,0,.9-.7.9-1.1,0-.4-.6-.9-1-1-.5-.2-1.2,0-1.8,0ZM46.3,68.6c.6,0,1.2.1,1.8,0,.4-.2,1-.7,1-1.1,0-.4-.6-1.1-1-1.1-1.2-.2-2.4-.1-3.5,0-.4,0-1.1.7-1,1,0,.4.5,1,1,1.2.6.2,1.3,0,1.9,0ZM16,66.3c-.6,0-1.2-.1-1.8,0-.5.2-1.1.7-1.1,1,0,.4.6,1.1,1,1.1,1.2.2,2.4.2,3.6,0,.4,0,1-.8,1-1.2,0-.4-.7-.9-1.1-1-.5-.2-1.1,0-1.6,0ZM59,66.3c-.6,0-1.2-.1-1.8,0-.4.1-1.1.7-1,1,0,.4.6,1.1,1,1.2,1.2.1,2.5.1,3.8,0,.4,0,.9-.7.9-1.1,0-.4-.6-.9-1-1-.6-.2-1.2,0-1.9,0Z"/>
  <path class="cls-1" d="M37.5,5.7c3.3,0,6.6,0,9.9,0,1.4,0,1.7.3,1.7,1.7,0,2,0,4,0,6,0,1.1-.5,1.6-1.6,1.6-6.7,0-13.4,0-20.1,0-1.1,0-1.6-.5-1.6-1.6,0-2,0-4.1,0-6.1,0-1.1.5-1.6,1.6-1.6,3.3,0,6.7,0,10,0Z"/>
  <path class="cls-1" d="M25.8,37.1H5c0-2.8,0-5.6,0-8.4,0-1.1,1-2,2.3-2,5.8,0,11.5,0,17.3,0,.4,0,1.3.7,1.3,1,.1,3.1,0,6.2,0,9.3Z"/>
  <path class="cls-1" d="M70,37.1h-20.9c0-3.2,0-6.2,0-9.3,0-.4.8-1,1.3-1,5.8,0,11.5,0,17.3,0,1.2,0,2.2.7,2.2,1.9.1,2.8,0,5.6,0,8.5Z"/>
  <path class="cls-1" d="M11.4,56.5c3.4-5.6,6.7-11,10.1-16.3.2-.3.6-.6,1-.6,1.1,0,2.2,0,3.3,0,.2,1.3,0,2.4-.6,3.5-2.5,3.8-5,7.7-7.1,11.7-1.1,2-2.6,2.4-4.6,2.2-.6,0-1.2-.3-2-.4Z"/>
  <path class="cls-1" d="M49,39.5c1.5,0,2.6,0,3.7,0,.3,0,.7.2.8.5,3.4,5.4,6.7,10.9,10.1,16.4-1.7.8-3.4.7-5,.2-.3-.1-.6-.5-.8-.8-2.7-4.4-5.5-8.8-8.1-13.3-.5-.8-.4-1.8-.7-3Z"/>
  <path class="cls-1" d="M19.1,39.5c-3.3,5.3-6.4,10.4-9.5,15.5-1.3-.8-2.5-1.6-3.8-2.4,0-.2.2-.4.3-.7,2.3-3.8,4.7-7.6,7-11.5.4-.7.8-1,1.6-.9,1.3,0,2.7,0,4.4,0Z"/>
  <path class="cls-1" d="M65.4,55c-3.1-5.1-6.3-10.2-9.5-15.5,1.9,0,3.5,0,5.1,0,.2,0,.5.3.6.5,2.6,4.1,5.1,8.3,7.7,12.5-1.3.8-2.5,1.6-3.9,2.5Z"/>
  <path class="cls-1" d="M29.5,17.5h16c.2,1.8,0,2.3-1.7,2.3-4.2,0-8.4,0-12.6,0-1.7,0-2-.4-1.7-2.3Z"/>
  <path class="cls-1" d="M5,48.8v-9.2h5.9c-2,3.2-3.9,6.3-5.7,9.3,0,0-.1,0-.2,0Z"/>
  <path class="cls-1" d="M64.1,39.6h5.9v9.6c-2-3.3-3.9-6.3-5.9-9.6Z"/>
  <path class="cls-1" d="M40.9,35.9h-6.9v-3.3h6.9v3.3Z"/>
  <path class="cls-1" d="M34.1,30.1v-3.3h6.9v3.3h-6.9Z"/>
  <path class="cls-1" d="M34.1,41.8v-3.3h6.9v3.3h-6.9Z"/>
  <path class="cls-1" d="M34.1,47.6v-3.3h6.9v3.3h-6.9Z"/>
  <path class="cls-1" d="M37.5,55.8c-1.3-2-2.5-3.7-3.8-5.7h7.5c-1.3,2-2.4,3.7-3.8,5.7Z"/>
  <path class="cls-1" d="M41,22.2v2.1h-6.9v-2.1h6.9Z"/>
  <path class="cls-1" d="M25.8,52.1c-1.4.3-2.7.6-4.1.9,1.3-2.2,2.6-4.3,4.1-6.6v5.7Z"/>
  <path class="cls-1" d="M49.2,46.4c1.5,2.4,2.8,4.5,4.1,6.7-1.4-.3-2.7-.6-4.1-.9v-5.7Z"/>
</svg>