<?xml version="1.0" encoding="UTF-8"?>
<svg id="Layer_1" data-name="Layer 1" xmlns="http://www.w3.org/2000/svg" version="1.1" viewBox="0 0 76 76">
  <defs>
    <style>
      .cls-1 {
        fill: #603127;
        stroke-width: 0px;
      }
    </style>
  </defs>
  <path class="cls-1" d="M37.6,40.8c-1.6,0-3.3-.5-4.5-1.6h0S12.7,21.2,12.7,21.2c-1.7-1.5-2.3-3.7-1.5-5.7.9-2.3,3.2-3.8,6-3.8h39.7c2.8,0,5.2,1.5,6,3.8.8,2,.2,4.2-1.5,5.7l-19.3,17.9c-1.3,1.1-2.9,1.7-4.6,1.7ZM36.2,35.7c.7.6,2.2.6,2.9,0l19.3-17.9c.4-.3.3-.5.3-.6-.1-.3-.7-.8-1.7-.8H17.2c-1,0-1.6.5-1.7.8,0,0,0,.2.2.5l20.4,18Z"/>
  <path class="cls-1" d="M61.4,68.8H13.7c-6,0-10.9-4.9-10.9-10.9v-30.3c0-1.6.9-3,2.4-3.7,1.5-.7,3.1-.4,4.3.6l26,22.7c1.1,1,2.8,1,4,0l26-22.7c1.2-1.1,2.9-1.3,4.3-.6,1.5.7,2.4,2.1,2.4,3.7v30.3c0,6-4.9,10.9-10.9,10.9ZM8.2,30.6v27.3c0,3,2.5,5.5,5.5,5.5h47.7c3,0,5.5-2.5,5.5-5.5v-27.3l-23.8,20.7c-3.2,2.8-7.9,2.8-11.1,0L8.2,30.6ZM69.1,28.6h0s0,0,0,0ZM67.4,26.6h0,0Z"/>
</svg>