<?xml version="1.0" encoding="UTF-8"?>
<svg id="Layer_1" data-name="Layer 1" xmlns="http://www.w3.org/2000/svg" version="1.1" viewBox="0 0 76 76">
  <defs>
    <style>
      .cls-1 {
        fill: #fff;
        stroke-width: 0px;
      }
    </style>
  </defs>
  <path class="cls-1" d="M46.7,19.9v5.1c.4,0,.8,0,1.2,0,2.6,0,5.1,0,7.7,0,4.1,0,6.8,2.4,7.3,6.4,1.3,10.7,2.7,21.3,3.9,32,.6,4.8-2.5,8.2-7.3,8.2-13.7,0-27.3,0-41,0-4.8,0-7.9-3.4-7.3-8.1,1.3-10.8,2.6-21.5,4-32.3.5-4,3.3-6.3,7.3-6.3,2.9,0,5.9,0,8.9,0v-4.7c-3.3-1-6.6-1.7-9.6-2.9-4.5-1.8-8.1-4.8-10.6-9-.4-.6-.6-1.8-.3-2.4.3-.6,1.4-1.1,2.1-1.1,17.4,0,34.8,0,52.2,0,.7,0,1.8.5,2.1,1.1.3.6.1,1.7-.3,2.4-4.1,6.4-10.2,9.8-17.6,11.1-.9.2-1.7.2-2.7.4ZM55.3,48.3c0-9-7.3-16.2-16.3-16.2-9,0-16.2,7.3-16.2,16.2,0,9,7.4,16.3,16.3,16.3,8.9,0,16.2-7.4,16.2-16.3Z"/>
  <path class="cls-1" d="M51.4,48.3c0,6.8-5.5,12.4-12.3,12.4-6.7,0-12.3-5.5-12.3-12.3,0-6.8,5.5-12.4,12.3-12.4,6.7,0,12.3,5.5,12.3,12.3ZM34.1,55.2c.6-.2,1.1-.3,1.3-.5,1.8-1.7,3.6-3.4,5.2-5.2.7-.8.6-1.7-.2-2.5-.8-.8-1.8-.9-2.6-.2-1.8,1.6-3.5,3.4-5.1,5.2-.4.4-.4,1.4-.2,2,.2.6,1,.9,1.5,1.3Z"/>
</svg>