<?xml version="1.0" encoding="UTF-8"?>
<svg id="Layer_1" data-name="Layer 1" xmlns="http://www.w3.org/2000/svg" version="1.1" viewBox="0 0 76 76">
  <defs>
    <style>
      .cls-1 {
        fill: #fff;
        stroke-width: 0px;
      }
    </style>
  </defs>
  <path class="cls-1" d="M5.4,69.1c0-.6-.1-1.2,0-1.8.2-.6.4-1.5.9-1.7,1.2-.4,1.1-1.3,1.1-2.2,0-11.9,0-23.8,0-35.8,0-2.2.6-3.2,2-3.2,1.4,0,2.1,1,2.1,3.3,0,11.9,0,23.8,0,35.6,0,.6,0,1.1,0,1.8,17.6,0,35,0,52.6,0,0-.6,0-1.2,0-1.8,0-11.9,0-23.8,0-35.8,0-2.2.7-3.2,2.1-3.1,1.4,0,2,1,2,3.1,0,12.1,0,24.1,0,36.2,0,.9,0,1.5,1,1.9.5.2.8,1,1,1.6.2.6,0,1.2,0,1.9.4.2.8.2,1,.4.4.6,1.1,1.4,1,2-.1.7-.9,1.3-1.6,1.8-.2.2-.7,0-1.1,0-21.2,0-42.5,0-63.7,0-.2,0-.5,0-.7,0-1.1,0-1.8-.6-2-1.7-.2-1,.3-1.7,1.2-2.2.3-.1.6-.2.9-.3Z"/>
  <path class="cls-1" d="M70.3,16.4q-.3,3.9-4.2,3.9c-19.1,0-38.1,0-57.2,0-3,0-3.4-.3-3.5-3.4,0-.2,0-.4,0-.5-.3-.1-.8-.2-1-.4-.4-.6-1.1-1.4-1-2,0-.6.9-1.2,1.4-1.7.3-.2.8-.1,1.2-.1,21.2,0,42.4,0,63.7,0,.2,0,.5,0,.7,0,1.1,0,1.8.6,2,1.7.2,1.1-.3,1.8-1.3,2.2-.2.1-.5.2-.7.3Z"/>
  <path class="cls-1" d="M43.9,49.3c0,1.8,0,3.7,0,5.5,0,3.7-2.7,6.3-6.1,6.3-3.4,0-6-2.6-6-6.3,0-3.9,0-7.8,0-11.7,0-1.7.7-2.4,2.4-2.4,2.5,0,4.9,0,7.4,0,1.6,0,2.3.7,2.3,2.3,0,2.1,0,4.1,0,6.2Z"/>
  <path class="cls-1" d="M15.5,32.6c0-1.9,0-3.8,0-5.7,0-1.8.7-2.5,2.4-2.5,2.4,0,4.9,0,7.3,0,1.7,0,2.4.7,2.4,2.4,0,3.9,0,7.7,0,11.6,0,1.7-.7,2.3-2.4,2.4-2.4,0-4.8,0-7.1,0-1.9,0-2.5-.7-2.6-2.5,0-1.9,0-3.8,0-5.7Z"/>
  <path class="cls-1" d="M60.1,32.6c0,1.9,0,3.8,0,5.7,0,1.7-.7,2.4-2.4,2.4-2.5,0-4.9,0-7.4,0-1.6,0-2.3-.7-2.3-2.3,0-3.9,0-7.8,0-11.7,0-1.6.8-2.3,2.4-2.3,2.5,0,4.9,0,7.4,0,1.6,0,2.3.7,2.3,2.3,0,2,0,4,0,5.9Z"/>
  <path class="cls-1" d="M27.7,51.2c0,1.4,0,2.9,0,4.3-.2,3.2-2.9,5.6-6,5.6-3.2,0-5.8-2.4-6-5.6-.2-2.9,0-5.8,0-8.7,0-1.3.8-2,2.1-2,2.6,0,5.3,0,7.9,0,1.3,0,2,.8,2.1,2.1,0,1.4,0,2.9,0,4.3,0,0,0,0,0,0Z"/>
  <path class="cls-1" d="M60,51.2c0,1.4,0,2.9,0,4.3-.2,3.2-2.9,5.6-6,5.6-3.2,0-5.8-2.4-6-5.6-.2-2.9,0-5.8,0-8.7,0-1.3.8-2,2.1-2,2.6,0,5.3,0,7.9,0,1.3,0,2,.8,2.1,2.1,0,1.4,0,2.9,0,4.3,0,0,0,0,0,0Z"/>
  <path class="cls-1" d="M43.9,30.4c0,1.3,0,2.7,0,4,0,1.4-.8,2.2-2.2,2.2-2.6,0-5.2,0-7.8,0-1.4,0-2.1-.8-2.1-2.1,0-2.7,0-5.3,0-8,0-1.4.8-2.2,2.2-2.2,2.6,0,5.1,0,7.7,0,1.5,0,2.2.8,2.3,2.3,0,1.3,0,2.5,0,3.8Z"/>
  <path class="cls-1" d="M21.6,4.2c1.3,0,2.6,0,3.9,0,1.3,0,2.1.8,2.1,2,0,1.2-.8,2.1-2.1,2.1-2.6,0-5.2,0-7.8,0-1.3,0-2.2-.9-2.1-2.1,0-1.1.9-1.9,2.1-1.9,1.3,0,2.6,0,3.9,0Z"/>
  <path class="cls-1" d="M37.9,4.2c1.3,0,2.5,0,3.8,0,1.3,0,2.1.8,2.2,1.9,0,1.2-.8,2.1-2.1,2.1-2.6,0-5.2,0-7.8,0-1.3,0-2.2-.9-2.2-2.1,0-1.1.9-1.9,2.1-2,1.3,0,2.7,0,4,0Z"/>
  <path class="cls-1" d="M54.1,4.2c1.3,0,2.5,0,3.8,0,1.3,0,2.2.9,2.2,2,0,1.2-.9,2-2.2,2-2.6,0-5.1,0-7.7,0-1.3,0-2.2-.9-2.2-2,0-1.2.9-2,2.2-2,1.3,0,2.6,0,3.9,0Z"/>
</svg>