<?xml version="1.0" encoding="utf-8"?>
<!-- Generator: Adobe Illustrator 16.0.0, SVG Export Plug-In . SVG Version: 6.00 Build 0)  -->
<!DOCTYPE svg PUBLIC "-//W3C//DTD SVG 1.1//EN" "http://www.w3.org/Graphics/SVG/1.1/DTD/svg11.dtd">
<svg version="1.1" id="Layer_1" xmlns="http://www.w3.org/2000/svg" xmlns:xlink="http://www.w3.org/1999/xlink" x="0px" y="0px"
	 width="124px" height="64px" viewBox="-30 0 124 64" enable-background="new -30 0 124 64" xml:space="preserve">
<g id="Layer_2_00000137090798033351604990000009281432855651800470_">
	<g id="Layer_2-2">
		<rect x="-15.866" y="1.032" fill="#0A9146" width="2.979" height="45.042"/>
		<rect x="15.385" y="1.032" fill="#0A9146" width="2.979" height="45.042"/>
		<rect x="46.665" y="1.032" fill="#0A9146" width="2.978" height="45.042"/>
		<rect x="77.693" y="1.032" fill="#0A9146" width="2.98" height="45.042"/>
		<circle fill="#F47421" cx="63.131" cy="8.534" r="3.199"/>
		<rect x="61.172" y="15.016" fill="#FFFFFF" width="4.303" height="17.074"/>
		<polygon fill="#FFFFFF" points="26.391,15.016 26.391,18.74 26.391,22.05 26.391,25.772 26.391,32.09 30.693,32.09 30.693,25.772 
			37.7,25.772 37.7,22.05 30.693,22.05 30.693,18.74 38.224,18.74 38.224,15.016 30.693,15.016 		"/>
		<polygon fill="#FFFFFF" points="7.303,15.016 4.187,15.016 4.187,15.043 0.904,24.229 -2.378,15.016 -2.378,15.016 -2.378,15.016 
			-5.107,15.016 -9.412,15.016 -9.412,19.264 -9.412,32.09 -5.107,32.09 -5.107,20.146 -1.357,30.6 -0.833,32.09 2.67,32.09 
			3.194,30.6 7.249,19.264 7.303,19.264 7.303,32.09 11.606,32.09 11.606,15.016 11.221,15.016 		"/>
		<path fill="#FFFFFF" d="M-28.333,62.844v-6.317h2.041c0.498-0.025,1.021,0,1.518,0.084c0.358,0.084,0.689,0.302,0.91,0.606
			c0.248,0.359,0.386,0.798,0.358,1.241c0,0.332-0.054,0.663-0.221,0.993c-0.138,0.25-0.304,0.469-0.524,0.636
			c-0.193,0.137-0.414,0.249-0.661,0.301c-0.442,0.084-0.883,0.112-1.324,0.084h-0.828v2.372H-28.333z M-27.064,57.604v1.793h0.689
			c0.331,0.029,0.689-0.028,0.993-0.111c0.165-0.055,0.303-0.164,0.387-0.303c0.11-0.138,0.138-0.332,0.138-0.497
			c0-0.221-0.055-0.413-0.192-0.58c-0.139-0.135-0.305-0.247-0.525-0.274c-0.304-0.027-0.606-0.055-0.91-0.055L-27.064,57.604z"/>
		<path fill="#FFFFFF" d="M-21.023,62.844v-5.24h-1.876v-1.077h5.021v1.077h-1.876v5.24H-21.023z"/>
		<path fill="#FFFFFF" d="M-14.625,62.844v-6.317h1.904l1.158,4.304l1.131-4.304h1.903v6.317h-1.186V57.88l-1.269,4.964h-1.242
			l-1.241-4.964v4.964H-14.625z"/>
		<path fill="#FFFFFF" d="M-3.205,60.527l1.241,0.387c-0.138,0.607-0.468,1.132-0.938,1.545c-0.497,0.359-1.076,0.522-1.683,0.494
			c-0.771,0.028-1.544-0.275-2.068-0.854c-0.551-0.578-0.8-1.354-0.8-2.347c0-1.045,0.275-1.873,0.827-2.453
			c0.552-0.58,1.325-0.91,2.152-0.883c0.69-0.027,1.38,0.219,1.875,0.69c0.305,0.331,0.552,0.717,0.635,1.157l-1.268,0.305
			c-0.111-0.634-0.69-1.077-1.324-1.048c-0.442-0.029-0.855,0.166-1.131,0.493c-0.304,0.334-0.441,0.886-0.441,1.629
			c0,0.802,0.137,1.379,0.441,1.712c0.276,0.331,0.689,0.522,1.103,0.495c0.332,0,0.634-0.109,0.883-0.329
			C-3.454,61.272-3.261,60.914-3.205,60.527z"/>
		<path fill="#FFFFFF" d="M1.567,62.844v-6.317h2.041c0.496-0.025,1.02,0,1.517,0.084c0.359,0.084,0.689,0.302,0.91,0.606
			c0.249,0.359,0.387,0.798,0.359,1.241c0,0.332-0.056,0.663-0.221,0.993c-0.138,0.25-0.332,0.469-0.551,0.636
			c-0.194,0.137-0.414,0.249-0.663,0.301c-0.442,0.084-0.883,0.112-1.324,0.084H2.808v2.372H1.567z M2.863,57.604v1.793h0.689
			c0.331,0.029,0.689-0.028,1.021-0.111c0.166-0.055,0.304-0.164,0.386-0.303c0.082-0.138,0.138-0.332,0.138-0.497
			c0-0.221-0.056-0.413-0.193-0.58c-0.138-0.135-0.303-0.247-0.524-0.274c-0.303-0.027-0.606-0.055-0.909-0.055L2.863,57.604z"/>
		<path fill="#FFFFFF" d="M7.469,62.844v-6.317h4.689v1.077H8.738v1.406h3.173v1.077H8.738v1.711h3.53v1.074L7.469,62.844z"/>
		<path fill="#FFFFFF" d="M14.778,62.844v-5.24h-1.875v-1.077h5.02v1.077h-1.875v5.24H14.778z"/>
		<path fill="#FFFFFF" d="M21.205,62.844v-6.317h4.331v1.077h-3.062v1.489h2.649v1.077h-2.649v2.674H21.205z"/>
		<path fill="#FFFFFF" d="M26.556,62.844v-6.317h1.27v6.317H26.556z"/>
		<path fill="#FFFFFF" d="M29.066,62.844v-6.259h1.269v5.213h3.171v1.074h-4.44V62.844z"/>
		<path fill="#FFFFFF" d="M34.417,62.844v-6.317h1.903l1.132,4.304l1.131-4.304h1.902v6.317h-1.185V57.88l-1.243,4.964h-1.24
			l-1.241-4.964v4.964H34.417z"/>
		<path fill="#FFFFFF" d="M44.209,62.844v-6.317h1.27v6.317H44.209z"/>
		<path fill="#FFFFFF" d="M46.69,62.844v-6.317h1.243l2.592,4.22v-4.22h1.186v6.317h-1.27l-2.535-4.11v4.11H46.69z"/>
		<path fill="#FFFFFF" d="M53.063,56.526h2.345c0.413,0,0.798,0.028,1.213,0.109c0.359,0.113,0.688,0.306,0.964,0.581
			c0.275,0.305,0.471,0.635,0.608,1.022c0.139,0.494,0.219,0.991,0.219,1.488c0,0.469-0.053,0.909-0.193,1.353
			c-0.135,0.411-0.358,0.798-0.686,1.103c-0.25,0.247-0.553,0.413-0.885,0.495c-0.358,0.111-0.744,0.141-1.129,0.141h-2.401v-6.292
			H53.063z M54.333,57.604v4.194h0.964c0.274,0,0.524,0,0.774-0.057c0.192-0.055,0.356-0.139,0.522-0.276
			c0.164-0.166,0.275-0.385,0.33-0.605c0.109-0.388,0.139-0.772,0.139-1.158c0-0.387-0.029-0.746-0.139-1.132
			c-0.055-0.221-0.192-0.442-0.358-0.606c-0.166-0.139-0.359-0.249-0.578-0.305c-0.358-0.055-0.69-0.082-1.05-0.055H54.333z"/>
		<path fill="#FFFFFF" d="M59.187,59.728c-0.027-0.552,0.084-1.104,0.276-1.629c0.135-0.328,0.33-0.606,0.578-0.854
			c0.25-0.25,0.524-0.441,0.827-0.58c0.442-0.164,0.884-0.248,1.352-0.248c0.827-0.027,1.655,0.277,2.235,0.854
			c0.553,0.58,0.827,1.379,0.827,2.402c0,1.019-0.274,1.817-0.827,2.399c-0.58,0.577-1.408,0.908-2.235,0.854
			c-0.826,0.025-1.654-0.277-2.234-0.854C59.463,61.521,59.187,60.746,59.187,59.728z M60.482,59.701
			c0,0.716,0.167,1.268,0.497,1.626c0.633,0.688,1.709,0.746,2.399,0.112c0.027-0.029,0.082-0.058,0.111-0.112
			c0.329-0.358,0.495-0.91,0.495-1.653c0-0.747-0.166-1.271-0.47-1.602c-0.689-0.689-1.792-0.718-2.481-0.058
			c-0.025,0-0.025,0.031-0.055,0.058C60.649,58.432,60.482,58.955,60.482,59.701L60.482,59.701z"/>
		<path fill="#FFFFFF" d="M66.303,62.844v-6.317h1.24l2.594,4.22v-4.22h1.186v6.317h-1.269l-2.537-4.11v4.11H66.303z"/>
		<path fill="#FFFFFF" d="M72.673,62.844v-6.317h4.69v1.077h-3.422v1.406h3.175v1.077h-3.175v1.711h3.533v1.074L72.673,62.844z"/>
		<path fill="#FFFFFF" d="M78.245,60.805l1.243-0.112c0.052,0.358,0.192,0.663,0.439,0.91c0.276,0.195,0.58,0.304,0.939,0.304
			c0.33,0.027,0.661-0.056,0.937-0.248c0.192-0.137,0.302-0.359,0.302-0.607c0-0.137-0.025-0.275-0.136-0.387
			c-0.139-0.137-0.275-0.219-0.469-0.276c-0.139-0.052-0.498-0.136-1.021-0.275c-0.522-0.084-1.019-0.302-1.434-0.635
			c-0.635-0.551-0.772-1.463-0.304-2.178c0.194-0.275,0.471-0.496,0.798-0.635c0.388-0.164,0.828-0.22,1.243-0.22
			c0.8,0,1.379,0.165,1.793,0.524c0.413,0.359,0.636,0.854,0.636,1.379l-1.27,0.055c-0.03-0.276-0.139-0.523-0.359-0.689
			c-0.247-0.166-0.522-0.249-0.8-0.222c-0.304-0.027-0.608,0.056-0.884,0.222c-0.135,0.083-0.192,0.249-0.192,0.385
			c0,0.141,0.083,0.305,0.192,0.387c0.359,0.223,0.774,0.359,1.161,0.415c0.468,0.109,0.936,0.248,1.379,0.441
			c0.275,0.136,0.524,0.359,0.688,0.636c0.163,0.301,0.275,0.659,0.247,0.991c0,0.358-0.109,0.718-0.302,1.021
			c-0.193,0.33-0.497,0.552-0.856,0.716c-0.439,0.166-0.909,0.247-1.379,0.222c-0.799,0-1.407-0.193-1.849-0.553
			C78.549,61.99,78.273,61.41,78.245,60.805z"/>
		<path fill="#FFFFFF" d="M84.425,62.844v-6.317h1.269v6.317H84.425z"/>
		<path fill="#FFFFFF" d="M92.589,62.844H91.21l-0.552-1.434H88.12l-0.525,1.434h-1.35l2.454-6.317h1.352L92.589,62.844z
			 M90.242,60.336l-0.853-2.347l-0.856,2.347H90.242z"/>
	</g>
</g>
</svg>
