<?xml version="1.0" encoding="UTF-8"?>
<svg id="Layer_1" data-name="Layer 1" xmlns="http://www.w3.org/2000/svg" version="1.1" viewBox="0 0 64 64">
  <defs>
    <style>
      .cls-1 {
        fill: #0160af;
      }

      .cls-1, .cls-2 {
        stroke-width: 0px;
      }

      .cls-2 {
        fill: none;
      }
    </style>
  </defs>
  <path class="cls-2" d="M28.3,14.3c-7.3,0-13.3,6-13.3,13.3s6,13.3,13.3,13.3,13.3-6,13.3-13.3-5.9-13.3-13.3-13.3Z"/>
  <path class="cls-1" d="M59.6,55.4l-13.3-14c3.4-4.3,5.3-9.6,5.3-15,0-13.3-10.8-24.1-24.1-24.1S3.3,13.1,3.3,26.4s10.8,24.1,24.1,24.1,9.4-1.4,13.3-4l13.5,14.1c.7.7,1.7,1.1,2.7,1.1s1.9-.4,2.6-1c.7-.7,1.1-1.6,1.1-2.6.1-1.1-.3-2-1-2.7ZM27.4,43.1c-9.2,0-16.6-7.5-16.6-16.6s7.5-16.6,16.6-16.6,16.6,7.5,16.6,16.6c0,9.1-7.4,16.6-16.6,16.6Z"/>
</svg>