<?xml version="1.0" encoding="UTF-8"?>
<svg id="Logos" xmlns="http://www.w3.org/2000/svg" version="1.1" viewBox="0 0 1088.6 758.2">
  <defs>
    <style>
      .cls-1 {
        fill: #0014dc;
        stroke-width: 0px;
      }
    </style>
  </defs>
  <path class="cls-1" d="M528.4,547.9C337,394.7,257.2,197.9,56.4,197.9v350h472Z"/>
  <path class="cls-1" d="M935.4,192.7c-39.1,0-74,17-94.3,42V87.9h-47.2v350h38.9l5-36.8c13.7,18.4,41.7,42,95.4,42s123.2-51.6,123.2-124.7-49-125.8-121-125.8h0ZM922.5,399.3c-52,0-83.1-31-83.1-81.3s31.8-81.3,83.1-81.3,83.1,31,83.1,81.3-31.8,81.3-83.1,81.3Z"/>
  <rect class="cls-1" x="711.6" y="87.9" width="47.2" height="350"/>
  <path class="cls-1" d="M578.1,402.4c-34.5,0-70.6-16.8-90.1-41l-31.9,30.3c31.1,35.2,71.7,51.4,119.9,51.4s107.6-29.5,107.6-79.1c0-103.2-179.3-38.7-179.3-96.9s24.8-33.4,63.5-33.4,59.3,11.2,74.8,27.1l31.9-30.3c-21.1-22.7-60.8-38-105.5-38-66.8,0-110.8,31.6-110.8,81.6,0,100.4,178.6,36.5,178.6,95.1s-23.3,33-58.8,33h0Z"/>
  <path class="cls-1" d="M1051.1,512.9h-510.8c105.4,86,267.3,175,510.8,175v-175Z"/>
</svg>