<?xml version="1.0" encoding="utf-8"?>
<!-- Generator: Adobe Illustrator 16.0.0, SVG Export Plug-In . SVG Version: 6.00 Build 0)  -->
<!DOCTYPE svg PUBLIC "-//W3C//DTD SVG 1.1//EN" "http://www.w3.org/Graphics/SVG/1.1/DTD/svg11.dtd">
<svg version="1.1" id="Layer_1" xmlns="http://www.w3.org/2000/svg" xmlns:xlink="http://www.w3.org/1999/xlink" x="0px" y="0px"
	 width="20px" height="20px" viewBox="-2.5 -2.5 20 20" enable-background="new -2.5 -2.5 20 20" xml:space="preserve">
<path fill="#FFFFFF" d="M12.195,6.334L5.139-0.721C4.516-1.347,3.425-1.344,2.806-0.722C2.494-0.411,2.322,0.003,2.322,0.444
	S2.494,1.299,2.806,1.61L8.697,7.5l-5.892,5.89c-0.311,0.312-0.483,0.726-0.483,1.165c0,0.44,0.172,0.854,0.483,1.166
	c0.312,0.312,0.726,0.483,1.167,0.483s0.855-0.172,1.166-0.483l7.059-7.057c0.307-0.311,0.478-0.723,0.482-1.165
	C12.68,7.062,12.508,6.647,12.195,6.334z"/>
</svg>
