<?xml version="1.0" encoding="utf-8"?>
<!-- Generator: Adobe Illustrator 25.2.0, SVG Export Plug-In . SVG Version: 6.00 Build 0)  -->
<svg version="1.1" id="Layer_1" xmlns="http://www.w3.org/2000/svg" xmlns:xlink="http://www.w3.org/1999/xlink" x="0px" y="0px"
	 viewBox="0 0 20 20" style="enable-background:new 0 0 20 20;" xml:space="preserve">
<style type="text/css">
	.st0{fill:#2B9B4B;}
</style>
<path class="st0" d="M14.2,8.5L7.1,1.5c-0.6-0.6-1.7-0.6-2.3,0C4.5,1.8,4.3,2.2,4.3,2.6s0.2,0.9,0.5,1.2l5.9,5.9l-5.9,5.9
	c-0.3,0.3-0.5,0.7-0.5,1.2c0,0.4,0.2,0.9,0.5,1.2c0.3,0.3,0.7,0.5,1.2,0.5s0.9-0.2,1.2-0.5l7.1-7.1c0.3-0.3,0.5-0.7,0.5-1.2
	C14.7,9.3,14.5,8.8,14.2,8.5z"/>
</svg>
