<?xml version="1.0" encoding="utf-8"?>
<!-- Generator: Adobe Illustrator 25.2.0, SVG Export Plug-In . SVG Version: 6.00 Build 0)  -->
<svg version="1.1" id="Layer_1" xmlns="http://www.w3.org/2000/svg" xmlns:xlink="http://www.w3.org/1999/xlink" x="0px" y="0px"
	 viewBox="0 0 64 64" style="enable-background:new 0 0 64 64;" xml:space="preserve">
<style type="text/css">
	.st0{fill:none;}
	.st1{fill:#002866;}
</style>
<g>
	<path class="st0" d="M28.3,14.3c-7.3,0-13.3,6-13.3,13.3s6,13.3,13.3,13.3s13.3-6,13.3-13.3S35.7,14.3,28.3,14.3z"/>
	<path class="st1" d="M59.6,55.4l-13.3-14c3.4-4.3,5.3-9.6,5.3-15c0-13.3-10.8-24.1-24.1-24.1S3.3,13.1,3.3,26.4
		s10.8,24.1,24.1,24.1c4.8,0,9.4-1.4,13.3-4l13.5,14.1c0.7,0.7,1.7,1.1,2.7,1.1s1.9-0.4,2.6-1c0.7-0.7,1.1-1.6,1.1-2.6
		C60.7,57,60.3,56.1,59.6,55.4z M27.4,43.1c-9.2,0-16.6-7.5-16.6-16.6c0-9.2,7.5-16.6,16.6-16.6c9.2,0,16.6,7.5,16.6,16.6
		C44.1,35.6,36.6,43.1,27.4,43.1z"/>
</g>
</svg>
