<?xml version="1.0" encoding="utf-8"?>
<!-- Generator: Adobe Illustrator 16.0.0, SVG Export Plug-In . SVG Version: 6.00 Build 0)  -->
<!DOCTYPE svg PUBLIC "-//W3C//DTD SVG 1.1//EN" "http://www.w3.org/Graphics/SVG/1.1/DTD/svg11.dtd">
<svg version="1.1" id="Layer_1" xmlns="http://www.w3.org/2000/svg" xmlns:xlink="http://www.w3.org/1999/xlink" x="0px" y="0px"
	 width="96px" height="96px" viewBox="0 0 96 96" enable-background="new 0 0 96 96" xml:space="preserve">
<path fill="#49A942" d="M48,95.75C21.67,95.75,0.25,74.329,0.25,48C0.25,21.67,21.67,0.25,48,0.25c26.329,0,47.75,21.42,47.75,47.75
	C95.75,74.329,74.329,95.75,48,95.75z M48,2.25C22.773,2.25,2.25,22.773,2.25,48S22.773,93.75,48,93.75S93.75,73.227,93.75,48
	S73.227,2.25,48,2.25z"/>
<g>
	<path fill="#49A942" d="M47.882,35.94c-2.395,0-4.343-1.948-4.343-4.343s1.948-4.343,4.343-4.343s4.343,1.948,4.343,4.343
		S50.276,35.94,47.882,35.94z M47.882,29.634c-1.083,0-1.963,0.881-1.963,1.963s0.88,1.963,1.963,1.963
		c1.083,0,1.963-0.881,1.963-1.963S48.965,29.634,47.882,29.634z"/>
	<path fill="#49A942" d="M47.5,29.159c-0.789,0-1.5-0.639-1.5-1.428v-6.663c0-0.789,0.711-1.428,1.5-1.428s1.5,0.639,1.5,1.428
		v6.663C49,28.52,48.289,29.159,47.5,29.159z"/>
	<path fill="#49A942" d="M47.5,60.57c-0.789,0-1.5-0.64-1.5-1.428V35.346c0-0.789,0.711-1.428,1.5-1.428s1.5,0.639,1.5,1.428v23.797
		C49,59.931,48.289,60.57,47.5,60.57z"/>
	<path fill="#49A942" d="M44.492,33.204c-0.042,0-0.083,0.396-0.126,0.392C43.528,33.514,32.602,34,25.461,34
		c-0.003,0-0.005,0-0.008,0c-0.653,0-1.186-0.925-1.19-1.58c-0.004-0.657,0.525-1.393,1.182-1.396
		c1.839-0.012,18.007-0.216,19.169-0.093c0.654,0.069,1.128,0.605,1.059,1.258C45.61,32.8,45.094,33.204,44.492,33.204z"/>
	<path fill="#49A942" d="M51.154,33.205c-0.499,0-0.963-0.316-1.129-0.814c-0.208-0.624,0.129-1.298,0.752-1.505
		c0.242-0.082,0.547-0.182,21.324-0.061c0.657,0.004,1.188,0.938,1.184,1.595C73.281,33.074,72.75,34,72.095,34
		c-0.002,0-0.004,0-0.006,0c-7.815,0-19.704-0.483-20.75-0.413C51.276,33.597,51.216,33.205,51.154,33.205z"/>
	<path fill="#49A942" d="M30.822,59c-0.201,0-0.729-0.018-1.111-0.035l-0.36-0.014c-5.885-0.151-7.613-5.176-7.704-7.813
		l-0.009-0.265l7.941-18.396c0.54-0.72,1.172-0.828,1.5-0.828c0.628,0,1.128,0.361,1.387,0.699l0.152,0.263l7.496,17.834
		l-0.033,0.299C39.529,55.839,38.634,59,30.877,59H30.822z M24.042,51.305c0.107,1.137,0.808,5.153,5.374,5.271l0.495,0.019
		C30.255,56.61,30,56.633,31,56.633v1.19l-0.081-1.19c5.812-0.052,6.317-1.451,6.808-5.833l-6.66-15.791L24.042,51.305z"/>
	<path fill="#49A942" d="M63.688,59h-0.07c-5.886,0-7.613-5.201-7.704-7.836l-0.009-0.278l7.941-18.401
		c0.54-0.72,1.172-0.83,1.5-0.83c0.628,0,1.128,0.36,1.387,0.698l0.152,0.261L74.362,50.4l-0.156,0.257
		C74.063,55.742,73,59.043,66,59.043V59h0.074C65.933,59,64.025,59,63.688,59z M58.31,51.306c0.107,1.136,0.464,5.152,5.03,5.27
		L63,57.766v-1.19c1,0,2.853,0.425,3.043,0.425h0.256c4.588,0,5.521-1.734,5.67-5.912l-6.656-15.956L58.31,51.306z"/>
	<path fill="#49A942" d="M54.325,66.995c-0.611,0-1.131-0.468-1.184-1.088c-0.366-4.267-4.158-4.799-4.826-4.859
		c-4.911,0.233-5.478,4.553-5.499,4.738c-0.077,0.652-0.669,1.117-1.321,1.042c-0.653-0.077-1.12-0.669-1.042-1.321
		c0.268-2.269,2.25-6.62,7.838-6.84l0.061-0.003l0.059,0.004c2.26,0.141,6.651,1.792,7.1,7.036c0.057,0.654-0.429,1.23-1.084,1.286
		C54.394,66.994,54.359,66.995,54.325,66.995z"/>
	<path fill="#49A942" d="M34.973,74.369c-0.021,0-0.042-0.001-0.063-0.002c-0.654-0.033-1.158-0.586-1.127-1.24
		c0.127-2.707,2.121-7.903,8.752-8.192c0.062-0.002,3.716-0.081,6.16-0.081c0.657,0,1.189,0.532,1.189,1.189s-0.532,1.19-1.189,1.19
		c-2.418,0-6.046,0.079-6.082,0.08c-5.962,0.259-6.42,5.351-6.453,5.931C36.125,73.877,35.6,74.369,34.973,74.369z"/>
	<path fill="#49A942" d="M62.021,75c-0.63,0-1.155-0.809-1.187-1.443c-0.034-0.584-0.495-5.827-6.479-6.087
		c-0.01,0-3.64-0.158-6.056-0.158c-0.657,0-1.19-0.571-1.19-1.229s0.533-1.21,1.19-1.21c2.444,0,6.098,0.069,6.134,0.07
		c6.657,0.29,8.65,5.796,8.777,8.502C63.241,74.102,62.733,75,62.077,75C62.059,75,62.039,75,62.021,75z"/>
	<path fill="#49A942" d="M23.134,53.003c-0.417,0-0.822-0.219-1.04-0.609c-0.32-0.574-0.114-1.299,0.459-1.619
		c0.316-0.176,7.829-4.265,16.52-0.218c0.596,0.277,0.854,0.985,0.577,1.58c-0.278,0.595-0.986,0.854-1.582,0.576
		c-7.6-3.537-14.289,0.104-14.356,0.14C23.529,52.955,23.331,53.003,23.134,53.003z"/>
	<path fill="#49A942" d="M57.401,53.003c-0.417,0-0.822-0.219-1.04-0.609c-0.319-0.574-0.114-1.299,0.459-1.619
		c0.315-0.177,7.83-4.266,16.521-0.218c0.596,0.277,0.854,0.985,0.576,1.58c-0.278,0.597-0.986,0.856-1.58,0.576
		c-7.604-3.539-14.289,0.103-14.356,0.14C57.797,52.955,57.598,53.003,57.401,53.003z"/>
</g>
</svg>
